<?xml version="1.0" standalone="no"?>
<!DOCTYPE svg PUBLIC "-//W3C//DTD SVG 20010904//EN"
 "http://www.w3.org/TR/2001/REC-SVG-20010904/DTD/svg10.dtd">
<svg version="1.0" xmlns="http://www.w3.org/2000/svg"
 width="384.000000pt" height="384.000000pt" viewBox="0 0 384.000000 384.000000"
 preserveAspectRatio="xMidYMid meet">

<g transform="translate(0.000000,384.000000) scale(0.100000,-0.100000)"
fill="#000000" stroke="none">
<path d="M1394 3350 c-34 -21 -74 -42 -88 -46 -45 -11 -86 -57 -86 -96 0 -34
57 -155 150 -318 55 -99 56 -105 19 -120 -30 -13 -32 -12 -71 28 -22 23 -45
42 -51 42 -7 0 -37 -22 -67 -49 -60 -54 -60 -48 -5 -116 l29 -38 -44 -39 -45
-40 -42 46 c-22 25 -46 46 -51 46 -13 0 -122 -90 -122 -100 0 -5 16 -27 35
-50 19 -23 35 -47 35 -53 0 -15 -64 -67 -83 -67 -7 0 -30 18 -50 40 -19 22
-40 40 -45 40 -5 0 -35 -24 -67 -53 l-57 -52 36 -44 c37 -44 44 -65 26 -76 -5
-3 -10 -13 -10 -20 0 -21 202 -263 221 -264 9 -1 49 27 90 62 276 235 511 427
522 427 9 0 11 -18 9 -65 -3 -56 -7 -65 -25 -71 -12 -4 -25 -12 -29 -18 -4 -6
-8 -81 -8 -167 0 -123 3 -159 14 -168 20 -17 1454 -14 1488 3 22 11 23 18 30
166 8 178 5 185 -72 198 -43 7 -45 9 -48 43 -4 42 -30 59 -91 59 -46 0 -71
-24 -71 -69 0 -28 -3 -32 -22 -29 -23 3 -23 3 -19 171 4 183 0 197 -51 197
-41 0 -68 17 -68 43 0 41 -35 67 -89 67 -55 0 -68 -11 -73 -60 -3 -31 -6 -35
-35 -38 -28 -3 -33 0 -39 25 -10 42 -33 63 -70 63 -48 0 -84 -20 -91 -49 -9
-40 -22 -51 -63 -51 -60 0 -63 -8 -55 -197 l6 -168 -21 24 c-11 13 -23 35 -26
50 -4 14 -16 37 -28 51 -26 31 -21 22 -194 345 -80 149 -166 315 -191 370 -61
131 -75 157 -107 194 -35 42 -65 40 -140 -9z"/>
<path d="M2150 2950 c-238 -5 -213 -6 195 -7 270 0 453 3 430 8 -42 8 -168 8
-625 -1z"/>
<path d="M1028 2912 c-27 -17 -43 -40 -34 -50 3 -2 16 8 29 22 25 26 28 27
151 27 70 0 128 4 131 9 4 6 -41 10 -122 9 -100 -1 -134 -4 -155 -17z"/>
<path d="M2825 2920 c3 -5 12 -10 19 -10 18 0 66 -53 66 -72 0 -9 5 -20 10
-23 16 -10 11 23 -7 53 -10 15 -27 35 -38 44 -21 19 -60 25 -50 8z"/>
<path d="M968 2837 c-5 -10 -8 -37 -8 -60 1 -34 3 -38 11 -24 6 9 9 36 7 60
-2 30 -5 37 -10 24z"/>
<path d="M2934 2754 c3 -26 7 -115 8 -198 l1 -151 8 174 c7 159 2 221 -17 221
-4 0 -4 -21 0 -46z"/>
<path d="M988 1808 l-3 -72 -34 -7 c-18 -4 -37 -13 -42 -21 -5 -7 -9 -61 -9
-120 0 -119 8 -138 60 -138 25 0 31 -5 39 -32 l9 -33 3 45 c2 25 2 63 0 85 -1
22 1 55 4 73 5 27 10 33 28 30 19 -3 23 -11 27 -67 4 -51 9 -67 27 -78 19 -13
24 -12 44 8 20 20 21 28 16 94 -9 98 -20 123 -62 141 -20 8 -41 14 -48 13 -34
-4 -37 2 -37 70 0 94 -18 102 -22 9z"/>
<path d="M2939 1840 c-3 -18 -12 -26 -37 -31 -19 -4 -39 -12 -45 -18 -16 -16
-27 -196 -15 -253 10 -50 26 -73 70 -101 27 -17 28 -20 27 -108 -1 -49 1 -92
3 -95 3 -2 8 37 12 87 5 69 12 98 28 119 l21 28 -22 35 c-18 30 -21 50 -22
158 0 127 -12 228 -20 179z"/>
<path d="M287 1792 c-22 -24 -21 -34 3 -60 15 -16 33 -22 60 -22 23 0 40 -5
40 -11 0 -6 -22 -50 -49 -98 -64 -113 -67 -125 -42 -150 19 -19 33 -21 129
-21 114 0 152 12 152 49 0 28 -26 44 -71 44 -23 0 -43 5 -45 12 -3 7 18 58 45
113 28 55 51 105 51 111 0 5 -10 19 -22 31 -19 17 -35 20 -128 20 -91 0 -109
-3 -123 -18z"/>
<path d="M1770 1728 c-25 -13 -55 -38 -67 -57 -46 -68 -20 -171 50 -208 58
-30 164 -15 186 26 15 27 -13 56 -43 46 -40 -14 -81 -11 -81 5 0 10 20 19 60
28 33 7 68 20 77 29 37 33 10 110 -48 138 -44 21 -82 19 -134 -7z m110 -73
c17 -21 4 -35 -35 -35 -41 0 -55 18 -30 37 24 17 50 17 65 -2z"/>
<path d="M1265 1724 c-47 -24 -57 -51 -30 -78 14 -13 18 -13 45 2 22 13 32 14
41 5 18 -18 0 -36 -31 -30 -21 5 -35 -1 -64 -27 -43 -40 -45 -65 -8 -107 24
-27 36 -32 78 -34 27 0 61 -6 75 -12 68 -29 98 19 80 130 -6 40 -19 86 -28
103 -31 59 -98 80 -158 48z m70 -184 c0 -9 -11 -16 -27 -18 -27 -3 -38 14 -21
32 12 12 48 2 48 -14z"/>
<path d="M2040 1712 c-48 -48 -38 -98 29 -131 20 -11 43 -27 50 -35 20 -24
-15 -33 -50 -12 -59 35 -94 -22 -43 -69 23 -21 37 -25 90 -25 57 0 64 2 88 31
46 54 29 101 -49 140 -25 12 -45 28 -45 36 0 17 12 16 54 -1 61 -25 89 19 41
64 -18 17 -40 25 -79 28 -51 4 -57 2 -86 -26z"/>
<path d="M3102 1723 c-39 -19 -54 -60 -28 -78 22 -17 21 -22 -14 -52 -38 -32
-38 -63 -1 -105 25 -28 35 -32 73 -31 23 1 57 -5 74 -12 72 -33 105 19 84 133
-15 80 -31 113 -66 141 -32 25 -77 27 -122 4z m64 -74 c11 -18 -13 -32 -43
-24 -27 6 -27 7 -9 21 24 17 42 18 52 3z m9 -109 c0 -9 -11 -16 -27 -18 -27
-3 -38 14 -21 32 12 12 48 2 48 -14z"/>
<path d="M2360 1719 c-134 -53 -121 -235 19 -269 82 -19 157 21 121 65 -9 11
-24 13 -57 8 -38 -5 -48 -3 -59 12 -35 47 -1 109 58 107 72 -2 95 48 33 74
-39 16 -79 17 -115 3z"/>
<path d="M3347 1719 c-14 -9 -17 -26 -17 -120 0 -125 8 -149 49 -149 44 0 61
27 61 98 0 51 3 63 20 72 16 9 22 6 36 -15 20 -31 49 -32 65 -4 14 27 -11 88
-44 109 -26 16 -145 22 -170 9z"/>
<path d="M684 1711 c-59 -26 -92 -136 -60 -203 45 -95 191 -90 232 8 27 64 13
123 -39 173 -28 26 -97 37 -133 22z m90 -83 c29 -41 12 -108 -27 -108 -35 0
-51 85 -21 114 21 21 30 20 48 -6z"/>
<path d="M2622 1709 c-58 -23 -91 -106 -71 -176 30 -108 176 -128 233 -33 24
41 21 125 -5 162 -35 49 -103 69 -157 47z m86 -71 c16 -16 16 -90 0 -106 -45
-45 -92 39 -52 96 17 25 34 28 52 10z"/>
<path d="M1815 1285 c-47 -47 -18 -119 46 -113 30 3 35 8 47 45 13 41 13 43
-14 68 -34 31 -48 31 -79 0z m50 -50 c0 -32 -21 -46 -27 -18 -6 27 3 54 16 50
6 -2 11 -16 11 -32z"/>
<path d="M2041 1301 c-11 -7 -9 -11 8 -20 27 -15 27 -24 -4 -57 -31 -33 -28
-48 9 -52 44 -5 59 4 44 28 -10 15 -10 22 0 32 37 37 -13 97 -57 69z"/>
<path d="M1944 1273 c4 -16 10 -41 13 -58 6 -31 21 -47 35 -39 9 6 11 85 2
108 -3 9 -17 16 -31 16 -23 0 -25 -3 -19 -27z"/>
<path d="M2916 1108 c-9 -30 -36 -57 -74 -75 -24 -10 -24 -11 -6 -12 11 -1 37
14 58 33 28 25 37 39 34 57 l-4 24 -8 -27z"/>
<path d="M1021 1088 c-1 -31 26 -68 49 -68 11 1 10 4 -5 16 -11 8 -25 29 -32
47 l-11 32 -1 -27z"/>
<path d="M1105 1000 c3 -6 50 -10 107 -10 56 0 99 2 97 4 -11 9 -210 15 -204
6z"/>
<path d="M1560 1000 c-34 -11 152 -11 205 -1 31 7 14 9 -70 9 -60 0 -121 -4
-135 -8z"/>
<path d="M2415 1000 c28 -12 347 -12 365 0 10 6 -52 10 -185 9 -121 0 -192 -4
-180 -9z"/>
</g>
</svg>
