<?xml version="1.0" standalone="no"?>
<!DOCTYPE svg PUBLIC "-//W3C//DTD SVG 20010904//EN"
 "http://www.w3.org/TR/2001/REC-SVG-20010904/DTD/svg10.dtd">
<svg version="1.0" xmlns="http://www.w3.org/2000/svg"
 width="144.000000pt" height="144.000000pt" viewBox="0 0 144.000000 144.000000"
 preserveAspectRatio="xMidYMid meet">

<g transform="translate(0.000000,144.000000) scale(0.100000,-0.100000)"
fill="#000000" stroke="none">
<path d="M503 1248 c-53 -27 -54 -41 -8 -129 19 -38 35 -70 35 -73 0 -12 -28
-5 -40 9 -12 14 -16 13 -36 -6 -23 -21 -23 -24 -7 -41 15 -17 15 -19 -3 -32
-16 -13 -21 -12 -36 1 -16 14 -20 14 -44 -1 -25 -17 -25 -18 -8 -37 17 -19 17
-20 0 -37 -16 -16 -18 -16 -30 1 -17 22 -29 22 -51 -3 -15 -17 -16 -22 -4 -36
7 -8 13 -24 14 -33 1 -17 64 -101 75 -101 3 0 56 43 118 95 63 52 115 95 116
95 2 0 1 -13 -2 -30 -2 -16 -8 -30 -13 -30 -5 0 -9 -29 -9 -65 l0 -65 284 0
283 0 6 62 c6 69 4 78 -22 78 -16 0 -17 9 -13 83 5 94 -11 143 -51 152 -12 3
-98 4 -192 3 l-170 -4 182 -2 182 -2 20 -26 c17 -21 21 -41 21 -99 0 -72 0
-72 -26 -67 -20 3 -26 0 -31 -17 -11 -42 -25 -20 -23 37 3 79 2 82 -19 82 -10
0 -21 9 -24 20 -3 14 -14 20 -31 20 -19 0 -26 -5 -26 -20 0 -11 -7 -20 -15
-20 -8 0 -15 6 -15 14 0 8 -5 18 -10 21 -15 9 -50 -4 -50 -20 0 -7 -10 -15
-22 -17 -22 -3 -23 -7 -20 -73 l3 -70 -27 44 c-15 25 -64 115 -108 200 -45 86
-88 157 -96 158 -8 1 -34 -8 -57 -19z"/>
<path d="M376 1084 c-9 -8 -15 -27 -15 -42 l2 -27 4 27 c6 37 21 46 83 51 l55
3 -57 2 c-40 1 -61 -3 -72 -14z"/>
<path d="M372 683 c-1 -22 -7 -33 -17 -33 -20 0 -21 -95 -1 -107 7 -4 16 -15
19 -23 3 -8 6 9 6 38 1 54 17 72 23 25 2 -14 9 -28 16 -31 10 -3 12 7 10 39
-2 34 -8 46 -25 54 -14 6 -23 20 -26 40 l-4 30 -1 -32z"/>
<path d="M1102 693 c-1 -7 -8 -13 -16 -13 -10 0 -17 -15 -21 -42 -7 -45 7 -98
25 -98 5 0 11 -24 11 -52 l2 -53 6 60 c4 33 4 94 0 135 -3 41 -7 69 -7 63z"/>
<path d="M105 670 c-9 -15 4 -30 26 -30 21 0 21 0 0 -34 -35 -55 -29 -68 29
-64 50 3 70 20 30 26 -25 4 -25 9 1 51 11 18 18 40 15 47 -6 16 -91 20 -101 4z"/>
<path d="M665 648 c-26 -15 -35 -28 -35 -55 0 -30 42 -57 76 -49 30 8 27 32
-4 28 -12 -2 -22 2 -22 7 0 6 11 11 25 11 36 0 44 28 16 52 -27 21 -29 21 -56
6z m40 -28 c3 -6 -4 -10 -17 -10 -18 0 -20 2 -8 10 19 12 18 12 25 0z"/>
<path d="M251 633 c-23 -16 -28 -62 -9 -81 36 -36 98 11 79 60 -12 31 -43 41
-70 21z m43 -29 c7 -18 0 -34 -15 -34 -5 0 -9 11 -9 25 0 28 15 34 24 9z"/>
<path d="M467 643 c-13 -13 -7 -23 16 -24 20 -1 19 -2 -5 -11 -54 -19 -28 -64
37 -63 29 0 30 2 28 39 -2 21 -8 45 -14 52 -12 15 -51 19 -62 7z m33 -63 c0
-5 -5 -10 -11 -10 -5 0 -7 5 -4 10 3 6 8 10 11 10 2 0 4 -4 4 -10z"/>
<path d="M759 634 c-12 -14 -9 -20 16 -41 l30 -24 -28 7 c-25 6 -28 4 -25 -12
4 -26 60 -31 79 -8 12 14 10 19 -15 41 -24 20 -26 24 -10 23 32 -4 37 -1 24
15 -16 20 -54 19 -71 -1z"/>
<path d="M873 635 c-13 -9 -23 -27 -23 -40 0 -42 75 -74 88 -37 2 7 -6 12 -23
12 -22 0 -26 4 -23 23 2 14 11 23 26 25 13 2 21 9 19 15 -6 18 -40 19 -64 2z"/>
<path d="M982 643 c-7 -3 -18 -16 -23 -30 -19 -50 43 -97 79 -61 20 20 14 65
-10 82 -24 17 -26 17 -46 9z m38 -54 c0 -20 -15 -26 -25 -9 -9 15 3 43 15 35
5 -3 10 -15 10 -26z"/>
<path d="M1157 643 c-13 -13 -7 -23 16 -24 20 -1 19 -2 -5 -11 -54 -19 -28
-64 37 -63 29 0 30 2 27 40 -2 22 -8 45 -14 52 -11 14 -50 18 -61 6z m33 -63
c0 -5 -5 -10 -11 -10 -5 0 -7 5 -4 10 3 6 8 10 11 10 2 0 4 -4 4 -10z"/>
<path d="M1252 598 c2 -39 7 -53 18 -53 10 0 16 12 18 33 3 32 17 43 24 20 4
-12 28 -3 28 10 -1 20 -22 35 -54 39 l-37 4 3 -53z"/>
<path d="M674 475 c-4 -9 -2 -21 4 -27 15 -15 44 -1 40 19 -4 23 -36 29 -44 8z
m23 -17 c-3 -8 -6 -5 -6 6 -1 11 2 17 5 13 3 -3 4 -12 1 -19z"/>
<path d="M730 465 c0 -14 5 -25 10 -25 6 0 10 11 10 25 0 14 -4 25 -10 25 -5
0 -10 -11 -10 -25z"/>
<path d="M769 481 c9 -6 10 -11 2 -15 -15 -10 -14 -26 2 -26 7 0 14 11 15 25
1 18 -3 25 -16 25 -13 0 -14 -2 -3 -9z"/>
<path d="M381 408 c-2 -25 31 -38 91 -36 53 1 53 2 8 5 -69 5 -88 11 -93 31
-4 16 -5 16 -6 0z"/>
<path d="M1078 398 c-10 -10 -14 -18 -9 -18 10 0 36 29 30 34 -2 1 -12 -6 -21
-16z"/>
<path d="M598 373 c17 -2 47 -2 65 0 17 2 3 4 -33 4 -36 0 -50 -2 -32 -4z"/>
<path d="M928 373 c23 -2 61 -2 85 0 23 2 4 4 -43 4 -47 0 -66 -2 -42 -4z"/>
</g>
</svg>
